<svg width="51" height="51" viewBox="0 0 51 51" fill="none" xmlns="http://www.w3.org/2000/svg">
<path d="M40.0046 23.3308H27.5046V10.8308C27.5046 10.2783 27.2851 9.74836 26.8944 9.35766C26.5037 8.96696 25.9738 8.74747 25.4213 8.74747C24.8688 8.74747 24.3389 8.96696 23.9482 9.35766C23.5575 9.74836 23.338 10.2783 23.338 10.8308V23.3308H10.838C10.2854 23.3308 9.75553 23.5503 9.36483 23.941C8.97413 24.3317 8.75464 24.8616 8.75464 25.4141C8.75464 25.9667 8.97413 26.4966 9.36483 26.8873C9.75553 27.278 10.2854 27.4975 10.838 27.4975H23.338V39.9975C23.338 40.55 23.5575 41.0799 23.9482 41.4706C24.3389 41.8613 24.8688 42.0808 25.4213 42.0808C25.9738 42.0808 26.5037 41.8613 26.8944 41.4706C27.2851 41.0799 27.5046 40.55 27.5046 39.9975V27.4975H40.0046C40.5572 27.4975 41.0871 27.278 41.4778 26.8873C41.8685 26.4966 42.088 25.9667 42.088 25.4141C42.088 24.8616 41.8685 24.3317 41.4778 23.941C41.0871 23.5503 40.5572 23.3308 40.0046 23.3308Z" fill="#231F20"/>
</svg>
