<svg width="15" height="15" viewBox="0 0 15 15" fill="none" xmlns="http://www.w3.org/2000/svg">
<path d="M5.78948 0C8.98696 0 11.579 2.59204 11.579 5.78948C11.579 7.10351 11.1412 8.31528 10.4036 9.28696L14.7688 13.6523C15.0771 13.9607 15.0771 14.4604 14.7688 14.7688C14.4886 15.0491 14.0499 15.0746 13.7409 14.8452L13.6523 14.7688L9.28696 10.4036C8.31528 11.1412 7.10351 11.579 5.78948 11.579C2.59204 11.579 0 8.98696 0 5.78948C0 2.59204 2.59204 0 5.78948 0V0ZM8.42107 5.00001H3.1579C2.72189 5.00001 2.36843 5.35347 2.36843 5.78948C2.36843 6.22549 2.72189 6.57896 3.1579 6.57896H8.42107C8.85707 6.57896 9.21054 6.22549 9.21054 5.78948C9.21054 5.35347 8.85707 5.00001 8.42107 5.00001Z" fill="#212121"/>
</svg>
