<svg width="12" height="12" viewBox="0 0 12 12" fill="none" xmlns="http://www.w3.org/2000/svg">
<path d="M1.34957 7.19846L4.87604 7.19832C4.66649 7.45198 4.53131 7.76932 4.50385 8.11697L4.49867 8.24869V10.9492C4.49867 11.3482 4.6403 11.7142 4.87604 11.9995L4.79872 12C2.74578 12 1.23174 11.3566 0.306275 10.0578C0.107062 9.77816 0 9.44341 0 9.10011V8.54802C0 7.80268 0.604221 7.19846 1.34957 7.19846ZM7.64923 5.69824H9.44955C9.83794 5.69824 10.1574 5.99341 10.1958 6.37167L10.1997 6.44837L10.1994 7.19828L10.9498 7.1985C11.5298 7.1985 12 7.66869 12 8.24869V10.9492C12 11.5292 11.5298 11.9994 10.9498 11.9994H6.14896C5.56896 11.9994 5.09878 11.5292 5.09878 10.9492V8.24869C5.09878 7.66869 5.56896 7.1985 6.14896 7.1985L6.89882 7.19828L6.8991 6.44837C6.8991 6.05998 7.19427 5.74052 7.57253 5.70211L7.64923 5.69824H9.44955H7.64923ZM9.29952 6.5984H7.79926L7.79898 7.19828H9.29925L9.29952 6.5984ZM4.79872 0C6.45587 0 7.79926 1.34338 7.79926 3.00053C7.79926 4.65768 6.45587 6.00107 4.79872 6.00107C3.14158 6.00107 1.79819 4.65768 1.79819 3.00053C1.79819 1.34338 3.14158 0 4.79872 0Z" fill="black"/>
</svg>
