<svg width="50" height="50" viewBox="0 0 50 50" fill="none" xmlns="http://www.w3.org/2000/svg">
<path d="M27.9374 25L36.8957 16.0625C37.288 15.6702 37.5084 15.1382 37.5084 14.5834C37.5084 14.0286 37.288 13.4965 36.8957 13.1042C36.5034 12.7119 35.9713 12.4915 35.4165 12.4915C34.8617 12.4915 34.3297 12.7119 33.9374 13.1042L24.9999 22.0625L16.0624 13.1042C15.6701 12.7119 15.138 12.4915 14.5832 12.4915C14.0284 12.4915 13.4963 12.7119 13.104 13.1042C12.7117 13.4965 12.4913 14.0286 12.4913 14.5834C12.4913 15.1382 12.7117 15.6702 13.104 16.0625L22.0624 25L13.104 33.9375C12.9088 34.1312 12.7538 34.3616 12.648 34.6155C12.5422 34.8694 12.4878 35.1417 12.4878 35.4167C12.4878 35.6917 12.5422 35.964 12.648 36.2179C12.7538 36.4718 12.9088 36.7022 13.104 36.8959C13.2977 37.0911 13.5281 37.2461 13.782 37.3519C14.0359 37.4577 14.3082 37.5121 14.5832 37.5121C14.8582 37.5121 15.1305 37.4577 15.3844 37.3519C15.6383 37.2461 15.8687 37.0911 16.0624 36.8959L24.9999 27.9375L33.9374 36.8959C34.131 37.0911 34.3615 37.2461 34.6153 37.3519C34.8692 37.4577 35.1415 37.5121 35.4165 37.5121C35.6916 37.5121 35.9639 37.4577 36.2177 37.3519C36.4716 37.2461 36.702 37.0911 36.8957 36.8959C37.091 36.7022 37.246 36.4718 37.3517 36.2179C37.4575 35.964 37.512 35.6917 37.512 35.4167C37.512 35.1417 37.4575 34.8694 37.3517 34.6155C37.246 34.3616 37.091 34.1312 36.8957 33.9375L27.9374 25Z" fill="#231F20"/>
</svg>
