<svg width="17" height="17" viewBox="0 0 17 17" fill="none" xmlns="http://www.w3.org/2000/svg">
<path d="M5.46338 5.82928C5.46338 2.75314 7.88724 0.329285 10.9634 0.329285C14.0395 0.329285 16.4634 2.75314 16.4634 5.82928C16.4634 8.90538 14.0395 11.3293 10.9634 11.3293C10.4703 11.3293 9.95688 11.2829 9.46338 11.1492V11.3293C9.46338 11.8816 9.01568 12.3293 8.46338 12.3293H7.46338V13.3293C7.46338 13.8816 7.01566 14.3293 6.46338 14.3293H5.46338V14.8293C5.46338 15.6577 4.79181 16.3293 3.96338 16.3293H1.96338C1.13495 16.3293 0.463379 15.6577 0.463379 14.8293V13.2435C0.463379 12.8457 0.621419 12.4642 0.902719 12.1829L5.44356 7.64199C5.57716 7.5084 5.64306 7.27382 5.58492 7.00384C5.50339 6.62526 5.46338 6.22596 5.46338 5.82928ZM13.4634 4.32928C13.4634 3.777 13.0157 3.32928 12.4634 3.32928C11.9111 3.32928 11.4634 3.777 11.4634 4.32928C11.4634 4.88156 11.9111 5.32928 12.4634 5.32928C13.0157 5.32928 13.4634 4.88156 13.4634 4.32928Z" fill="#212121"/>
</svg>
