<svg width="15" height="15" viewBox="0 0 15 15" fill="none" xmlns="http://www.w3.org/2000/svg">
<path d="M5 0.833333C5 0.3731 4.6269 0 4.16667 0C3.70643 0 3.33333 0.3731 3.33333 0.833333V2.91667C3.33333 3.14678 3.14678 3.33333 2.91667 3.33333H0.833333C0.3731 3.33333 0 3.70643 0 4.16667C0 4.6269 0.3731 5 0.833333 5H2.91667C4.06726 5 5 4.06726 5 2.91667V0.833333Z" fill="#212121"/>
<path d="M5 14.1667C5 14.6269 4.6269 15 4.16667 15C3.70643 15 3.33333 14.6269 3.33333 14.1667V12.0833C3.33333 11.8532 3.14678 11.6667 2.91667 11.6667H0.833333C0.3731 11.6667 0 11.2936 0 10.8333C0 10.3731 0.3731 10 0.833333 10H2.91667C4.06726 10 5 10.9327 5 12.0833V14.1667Z" fill="#212121"/>
<path d="M10.8333 0C10.3731 0 10 0.3731 10 0.833333V2.91667C10 4.06726 10.9327 5 12.0833 5H14.1667C14.6269 5 15 4.6269 15 4.16667C15 3.70643 14.6269 3.33333 14.1667 3.33333H12.0833C11.8532 3.33333 11.6667 3.14678 11.6667 2.91667V0.833333C11.6667 0.3731 11.2936 0 10.8333 0Z" fill="#212121"/>
<path d="M10 14.1667C10 14.6269 10.3731 15 10.8333 15C11.2936 15 11.6667 14.6269 11.6667 14.1667V12.0833C11.6667 11.8532 11.8532 11.6667 12.0833 11.6667H14.1667C14.6269 11.6667 15 11.2936 15 10.8333C15 10.3731 14.6269 10 14.1667 10H12.0833C10.9327 10 10 10.9327 10 12.0833V14.1667Z" fill="#212121"/>
</svg>
