<svg width="12" height="12" viewBox="0 0 12 12" fill="none" xmlns="http://www.w3.org/2000/svg">
<path d="M1.04395 4L1.03444 4.07365C0.43393 4.26953 0 4.83409 0 5.5V8.5C0 9.3284 0.67157 10 1.5 10H10.5C11.3284 10 12 9.3284 12 8.5V5.5C12 4.8322 11.5636 4.26633 10.9604 4.07199L10.9512 4H11.5C11.7761 4 12 3.77614 12 3.5C12 3.22386 11.7761 3 11.5 3H10.8235L10.6634 1.74655C10.5358 0.74808 9.6861 0 8.6795 0H3.3188C2.31324 0 1.46404 0.74661 1.33527 1.74388L1.17308 3H0.50005C0.22391 3 5.00679e-05 3.22386 5.00679e-05 3.5C5.00679e-05 3.77614 0.22391 4 0.50005 4H1.04395ZM3.3188 1H8.6795C9.1828 1 9.6076 1.37404 9.6714 1.87327L9.9431 4H2.05225L2.32703 1.87194C2.39142 1.3733 2.81602 1 3.3188 1V1ZM3.25105 7.74893C2.8374 7.74893 2.50208 7.4136 2.50208 6.99996C2.50208 6.58631 2.8374 6.25098 3.25105 6.25098C3.6647 6.25098 4.00003 6.58631 4.00003 6.99996C4.00003 7.4136 3.6647 7.74893 3.25105 7.74893ZM8.749 7.74893C8.3353 7.74893 8 7.4136 8 6.99996C8 6.58631 8.3353 6.25098 8.749 6.25098C9.1626 6.25098 9.498 6.58631 9.498 6.99996C9.498 7.4136 9.1626 7.74893 8.749 7.74893Z" fill="#212121"/>
<path d="M10.4968 11H8.99683V11.25C8.99683 11.6642 9.33263 12 9.74683 12C10.1611 12 10.4968 11.6642 10.4968 11.25V11Z" fill="#212121"/>
<path d="M3 11H1.5V11.25C1.5 11.6642 1.83579 12 2.25 12C2.66421 12 3 11.6642 3 11.25V11Z" fill="#212121"/>
</svg>
