<svg width="15" height="15" viewBox="0 0 15 15" fill="none" xmlns="http://www.w3.org/2000/svg">
<path d="M5.89286 0C9.14743 0 11.7857 2.63832 11.7857 5.89286C11.7857 7.23165 11.3393 8.4662 10.5872 9.45564L10.4214 9.66386L14.8431 14.0854C15.0523 14.2947 15.0523 14.6339 14.8431 14.8431C14.6804 15.0058 14.4391 15.042 14.2414 14.9516L14.1597 14.9051L14.0854 14.8431L9.66386 10.4214C8.64204 11.2732 7.32727 11.7857 5.89286 11.7857C2.63832 11.7857 0 9.14743 0 5.89286C0 2.63832 2.63832 0 5.89286 0V0ZM5.89286 1.07143C3.23006 1.07143 1.07143 3.23006 1.07143 5.89286C1.07143 8.55568 3.23006 10.7143 5.89286 10.7143C8.55568 10.7143 10.7143 8.55568 10.7143 5.89286C10.7143 3.23006 8.55568 1.07143 5.89286 1.07143ZM8.57143 5.35714C8.86725 5.35714 9.10714 5.59699 9.10714 5.89286C9.10714 6.18872 8.86725 6.42857 8.57143 6.42857H3.21429C2.91842 6.42857 2.67857 6.18872 2.67857 5.89286C2.67857 5.59699 2.91842 5.35714 3.21429 5.35714H8.57143Z" fill="#212121"/>
</svg>
