<svg width="51" height="51" viewBox="0 0 51 51" fill="none" xmlns="http://www.w3.org/2000/svg">
<path d="M42.6083 28.7279C42.0834 28.5643 41.5151 28.6149 41.0273 28.8685C40.5394 29.1222 40.1717 29.5584 40.0041 30.0821C39.0199 33.0914 37.1011 35.7082 34.527 37.5517C31.9528 39.3952 28.8576 40.3692 25.6917 40.3321C21.7757 40.3766 18.0019 38.8664 15.1978 36.1326C12.3938 33.3988 10.7882 29.6646 10.7333 25.7487C10.7882 21.8329 12.3938 18.0987 15.1978 15.3649C18.0019 12.6311 21.7757 11.1209 25.6917 11.1654C29.2283 11.1569 32.6561 12.3879 35.3791 14.6446L30.8583 13.8946C30.5874 13.85 30.3103 13.8594 30.043 13.9223C29.7757 13.9852 29.5235 14.1003 29.3008 14.261C29.0782 14.4217 28.8895 14.6248 28.7456 14.8587C28.6017 15.0925 28.5055 15.3526 28.4625 15.6237C28.4179 15.8947 28.4273 16.1718 28.4902 16.4391C28.5531 16.7064 28.6682 16.9586 28.8289 17.1812C28.9896 17.4039 29.1927 17.5926 29.4266 17.7364C29.6604 17.8803 29.9205 17.9765 30.1916 18.0196L39.025 19.4779H39.3791C39.6207 19.4776 39.8604 19.4353 40.0875 19.3529C40.1638 19.3239 40.2343 19.2816 40.2958 19.2279C40.4452 19.1724 40.5856 19.0952 40.7125 18.9987L40.9 18.7696C40.9 18.6654 41.0875 18.5821 41.1708 18.4571C41.2542 18.3321 41.1708 18.2487 41.275 18.1654C41.3325 18.0441 41.3813 17.9188 41.4208 17.7904L42.9833 9.45708C43.0353 9.18349 43.0329 8.90235 42.9762 8.62969C42.9195 8.35704 42.8097 8.09822 42.653 7.868C42.4963 7.63779 42.2958 7.4407 42.0629 7.28798C41.8301 7.13526 41.5694 7.0299 41.2958 6.97791C41.0222 6.92593 40.7411 6.92835 40.4684 6.98502C40.1958 7.04169 39.937 7.15151 39.7067 7.30821C39.2418 7.62468 38.9216 8.11288 38.8166 8.66541L38.2541 11.6862C34.7666 8.66383 30.3066 6.99964 25.6917 6.99875C20.6707 6.9543 15.8371 8.90353 12.2517 12.4187C8.66618 15.9339 6.62163 20.7279 6.56665 25.7487C6.62163 30.7696 8.66618 35.5636 12.2517 39.0788C15.8371 42.594 20.6707 44.5432 25.6917 44.4987C29.7607 44.5613 33.7423 43.3157 37.0503 40.9453C40.3582 38.575 42.8177 35.2052 44.0666 31.3321C44.1457 31.0654 44.1705 30.7855 44.1396 30.509C44.1087 30.2326 44.0228 29.9651 43.8869 29.7223C43.7509 29.4796 43.5678 29.2666 43.3482 29.0958C43.1286 28.925 42.877 28.7999 42.6083 28.7279Z" fill="#231F20"/>
</svg>
