<svg width="51" height="51" viewBox="0 0 51 51" fill="none" xmlns="http://www.w3.org/2000/svg">
<path d="M12.9634 7.18903C12.9634 3.73728 15.7616 0.939026 19.2134 0.939026H31.7134C35.1651 0.939026 37.9634 3.73728 37.9634 7.18903V13.439H44.2134C47.6651 13.439 50.4634 16.2373 50.4634 19.689V32.189C50.4634 35.6408 47.6651 38.439 44.2134 38.439H37.9634V44.689C37.9634 48.1408 35.1651 50.939 31.7134 50.939H19.2134C15.7616 50.939 12.9634 48.1408 12.9634 44.689V38.439H6.71338C3.26163 38.439 0.463379 35.6408 0.463379 32.189V19.689C0.463379 16.2373 3.26163 13.439 6.71338 13.439H12.9634V7.18903ZM31.7134 7.18903H19.2134V16.564C19.2134 18.2899 17.8143 19.689 16.0884 19.689H6.71338V32.189H16.0884C17.8143 32.189 19.2134 33.5882 19.2134 35.314V44.689H31.7134V35.314C31.7134 33.5882 33.1125 32.189 34.8384 32.189H44.2134V19.689H34.8384C33.1125 19.689 31.7134 18.2899 31.7134 16.564V7.18903Z" fill="#8C0000"/>
</svg>
