<svg width="50" height="51" viewBox="0 0 50 51" fill="none" xmlns="http://www.w3.org/2000/svg">
<path d="M43.1456 40.3727L36.0623 33.3102C38.3476 30.3987 39.5877 26.8033 39.5831 23.1019C39.5831 19.8055 38.6056 16.5832 36.7743 13.8424C34.9429 11.1016 32.3399 8.96535 29.2945 7.70389C26.2491 6.44243 22.8979 6.11238 19.6649 6.75546C16.4319 7.39855 13.4622 8.9859 11.1313 11.3168C8.80044 13.6476 7.2131 16.6174 6.57001 19.8504C5.92692 23.0834 6.25698 26.4345 7.51844 29.4799C8.7799 32.5254 10.9161 35.1284 13.6569 36.9597C16.3977 38.7911 19.6201 39.7686 22.9164 39.7686C26.6178 39.7732 30.2132 38.5331 33.1248 36.2477L40.1873 43.3311C40.3809 43.5263 40.6114 43.6813 40.8652 43.7871C41.1191 43.8928 41.3914 43.9473 41.6664 43.9473C41.9415 43.9473 42.2138 43.8928 42.4676 43.7871C42.7215 43.6813 42.9519 43.5263 43.1456 43.3311C43.3409 43.1374 43.4959 42.907 43.6016 42.6531C43.7074 42.3992 43.7618 42.1269 43.7618 41.8519C43.7618 41.5769 43.7074 41.3046 43.6016 41.0507C43.4959 40.7968 43.3409 40.5664 43.1456 40.3727V40.3727ZM10.4164 23.1019C10.4164 20.6296 11.1495 18.2129 12.5231 16.1573C13.8966 14.1016 15.8488 12.4995 18.1329 11.5534C20.417 10.6073 22.9303 10.3598 25.3551 10.8421C27.7798 11.3244 30.0071 12.5149 31.7553 14.2631C33.5034 16.0112 34.6939 18.2385 35.1762 20.6633C35.6586 23.088 35.411 25.6014 34.4649 27.8854C33.5188 30.1695 31.9167 32.1217 29.8611 33.4953C27.8054 34.8688 25.3887 35.6019 22.9164 35.6019C19.6012 35.6019 16.4218 34.2849 14.0776 31.9407C11.7334 29.5965 10.4164 26.4171 10.4164 23.1019Z" fill="#231F20"/>
</svg>
