<svg width="51" height="51" viewBox="0 0 51 51" fill="none" xmlns="http://www.w3.org/2000/svg">
<path d="M42.2275 44.0678C41.7516 44.0816 41.2853 43.9321 40.9062 43.644C40.5271 43.3559 40.2582 42.9467 40.1441 42.4844C39.2061 38.7678 37.1404 35.4326 34.2308 32.9371C31.3212 30.4415 27.7103 28.9079 23.8941 28.5469V30.8803C23.8938 31.61 23.6781 32.3235 23.2742 32.9312C22.8703 33.539 22.296 34.0141 21.6233 34.2969C20.8938 34.6323 20.083 34.7497 19.2884 34.6351C18.4938 34.5206 17.7492 34.1789 17.1441 33.6511L6.60246 24.4636C6.19823 24.1194 5.87357 23.6915 5.65093 23.2095C5.42829 22.7275 5.31299 22.2029 5.31299 21.6719C5.31299 21.141 5.42829 20.6164 5.65093 20.1344C5.87357 19.6524 6.19823 19.2245 6.60246 18.8803L17.1441 9.67195C17.7571 9.1351 18.5141 8.78976 19.3213 8.67868C20.1285 8.56759 20.9506 8.69563 21.6858 9.04695C22.3585 9.32983 22.9328 9.8049 23.3367 10.4127C23.7407 11.0204 23.9563 11.7339 23.9566 12.4636V14.9011C29.6154 15.3386 34.9047 17.8813 38.7807 22.0273C42.6568 26.1733 44.838 31.6216 44.8941 37.2969C44.8913 39.046 44.6744 40.7881 44.2483 42.4844C44.1342 42.9467 43.8653 43.3559 43.4862 43.644C43.1072 43.9321 42.6409 44.0816 42.165 44.0678H42.2275ZM21.8733 24.2761C25.4082 24.2498 28.9018 25.0365 32.0843 26.5754C35.2668 28.1142 38.0529 30.3641 40.2275 33.1511C39.1839 29.0891 36.8086 25.4943 33.4813 22.9413C30.1541 20.3882 26.067 19.0244 21.8733 19.0678C21.3208 19.0678 20.7909 18.8483 20.4002 18.4576C20.0095 18.0669 19.79 17.537 19.79 16.9844V12.9844L9.7483 21.6719L19.79 30.4428V26.2761C19.8115 25.7382 20.0405 25.2294 20.4289 24.8566C20.8172 24.4837 21.3349 24.2757 21.8733 24.2761V24.2761Z" fill="#231F20"/>
</svg>
