<svg width="50" height="50" viewBox="0 0 50 50" fill="none" xmlns="http://www.w3.org/2000/svg">
<path d="M20.5418 37.5C20.2562 37.4991 19.9738 37.4394 19.7121 37.3247C19.4505 37.21 19.2153 37.0428 19.021 36.8333L8.89601 26.0625C8.51753 25.6591 8.31477 25.122 8.33235 24.5691C8.34994 24.0163 8.58641 23.4931 8.98976 23.1146C9.39311 22.7361 9.9303 22.5333 10.4831 22.5509C11.036 22.5685 11.5592 22.805 11.9377 23.2083L20.521 32.3542L38.0418 13.1875C38.2196 12.9661 38.4408 12.7834 38.6918 12.6505C38.9428 12.5177 39.2183 12.4376 39.5014 12.4152C39.7845 12.3927 40.0692 12.4283 40.338 12.5199C40.6068 12.6115 40.854 12.757 41.0645 12.9476C41.275 13.1382 41.4443 13.3698 41.5621 13.6282C41.6798 13.8866 41.7435 14.1664 41.7492 14.4503C41.7548 14.7342 41.7024 15.0163 41.5951 15.2792C41.4878 15.5421 41.3279 15.7803 41.1252 15.9792L22.0835 36.8125C21.8911 37.0257 21.6567 37.1969 21.3949 37.3152C21.1332 37.4335 20.8499 37.4964 20.5627 37.5H20.5418Z" fill="#231F20"/>
</svg>
