<svg width="51" height="51" viewBox="0 0 51 51" fill="none" xmlns="http://www.w3.org/2000/svg">
<path d="M40.8382 15.7058L35.1298 9.99747C34.3848 9.29767 33.4086 8.89613 32.3868 8.86924C31.365 8.84235 30.369 9.19199 29.5882 9.85163L10.8382 28.6016C10.1648 29.2807 9.74548 30.1708 9.65068 31.1225L8.75485 39.81C8.72679 40.1151 8.76638 40.4227 8.87081 40.7108C8.97524 40.9989 9.14194 41.2604 9.35902 41.4766C9.55368 41.6697 9.78455 41.8225 10.0384 41.9262C10.2922 42.0298 10.564 42.0824 10.8382 42.0808H11.0257L19.7132 41.2891C20.6648 41.1943 21.5549 40.775 22.234 40.1016L40.984 21.3516C41.7118 20.5828 42.1051 19.5569 42.0777 18.4986C42.0504 17.4403 41.6046 16.436 40.8382 15.7058V15.7058ZM19.3382 37.1225L13.0882 37.7058L13.6507 31.4558L25.4215 19.8308L31.0465 25.4558L19.3382 37.1225ZM33.7548 22.6641L28.1715 17.0808L32.234 12.9141L37.9215 18.6016L33.7548 22.6641Z" fill="#231F20"/>
</svg>
