<svg width="52" height="52" viewBox="0 0 52 52" fill="none" xmlns="http://www.w3.org/2000/svg">
<path d="M25.9999 23.8333C27.714 23.8333 29.3896 23.325 30.8149 22.3727C32.2401 21.4204 33.3509 20.0669 34.0069 18.4833C34.6628 16.8996 34.8345 15.1571 34.5001 13.4759C34.1657 11.7947 33.3402 10.2505 32.1282 9.03841C30.9161 7.82636 29.3719 7.00094 27.6907 6.66653C26.0095 6.33213 24.267 6.50376 22.6833 7.15971C21.0997 7.81567 19.7462 8.9265 18.7938 10.3517C17.8415 11.777 17.3333 13.4526 17.3333 15.1667C17.3333 17.4652 18.2463 19.6696 19.8717 21.2949C21.497 22.9202 23.7014 23.8333 25.9999 23.8333Z" fill="currentColor"/>
<path d="M38.9999 45.5C39.5746 45.5 40.1257 45.2717 40.532 44.8654C40.9383 44.4591 41.1666 43.908 41.1666 43.3333C41.1666 39.3109 39.5687 35.4532 36.7244 32.6089C33.8801 29.7646 30.0224 28.1667 25.9999 28.1667C21.9775 28.1667 18.1198 29.7646 15.2755 32.6089C12.4312 35.4532 10.8333 39.3109 10.8333 43.3333C10.8333 43.908 11.0615 44.4591 11.4679 44.8654C11.8742 45.2717 12.4253 45.5 12.9999 45.5H38.9999Z" fill="currentColor"/>
</svg>
